<svg height="1em" viewBox="0 0 136 21" fill="none" xmlns="http://www.w3.org/2000/svg">
<path d="M2.98023e-08 16V0.92H0.0200001L7.86 12.02L6.86 11.8L14.66 0.92H14.7V16H12.38V6.18L12.54 7.38L7.28 14.82H7.24L1.86 7.38L2.26 6.28V16H2.98023e-08ZM21.7914 16.22C20.9914 16.22 20.2647 16.0533 19.6114 15.72C18.9714 15.3867 18.4647 14.8933 18.0914 14.24C17.7181 13.5733 17.5314 12.7533 17.5314 11.78C17.5314 10.82 17.7247 10 18.1114 9.32C18.5114 8.62667 19.0314 8.09333 19.6714 7.72C20.3247 7.34667 21.0314 7.16 21.7914 7.16C22.6047 7.16 23.2581 7.32 23.7514 7.64C24.2581 7.96 24.6514 8.34 24.9314 8.78L24.8114 9.1L25.0314 7.54H27.0914V16H24.8514V13.94L25.0714 14.48C25.0181 14.56 24.9114 14.6933 24.7514 14.88C24.5914 15.0533 24.3714 15.2467 24.0914 15.46C23.8114 15.6733 23.4781 15.8533 23.0914 16C22.7181 16.1467 22.2847 16.22 21.7914 16.22ZM22.4114 14.38C22.8114 14.38 23.1714 14.3067 23.4914 14.16C23.8247 14.0133 24.1047 13.8067 24.3314 13.54C24.5714 13.2733 24.7447 12.9533 24.8514 12.58V10.74C24.7447 10.3933 24.5714 10.0933 24.3314 9.84C24.0914 9.57333 23.7981 9.36667 23.4514 9.22C23.1181 9.07333 22.7447 9 22.3314 9C21.8781 9 21.4581 9.11333 21.0714 9.34C20.6847 9.56667 20.3714 9.88 20.1314 10.28C19.9047 10.68 19.7914 11.14 19.7914 11.66C19.7914 12.1667 19.9114 12.6267 20.1514 13.04C20.3914 13.4533 20.7114 13.78 21.1114 14.02C21.5114 14.26 21.9447 14.38 22.4114 14.38ZM32.2045 7.54L32.4045 9.36L32.3245 9.12C32.6179 8.53333 33.0512 8.06667 33.6245 7.72C34.2112 7.36 34.9045 7.18 35.7045 7.18C36.5045 7.18 37.1645 7.41333 37.6845 7.88C38.2045 8.34667 38.4712 8.96 38.4845 9.72V16H36.2445V10.52C36.2312 10.0933 36.1112 9.75333 35.8845 9.5C35.6579 9.23333 35.2979 9.09333 34.8045 9.08C34.3512 9.08 33.9445 9.22 33.5845 9.5C33.2245 9.76667 32.9379 10.14 32.7245 10.62C32.5245 11.0867 32.4245 11.6267 32.4245 12.24V16H30.1845V7.54H32.2045ZM41.5713 7.54H43.8113V16H41.5713V7.54ZM41.4713 4.52C41.4713 4.17333 41.6046 3.88667 41.8713 3.66C42.1513 3.43333 42.4513 3.32 42.7713 3.32C43.0913 3.32 43.3779 3.43333 43.6313 3.66C43.8979 3.88667 44.0313 4.17333 44.0313 4.52C44.0313 4.86667 43.8979 5.15333 43.6313 5.38C43.3779 5.59333 43.0913 5.7 42.7713 5.7C42.4513 5.7 42.1513 5.58667 41.8713 5.36C41.6046 5.13333 41.4713 4.85333 41.4713 4.52ZM52.0238 16.22C51.4371 16.22 50.8704 16.0933 50.3238 15.84C49.7771 15.5867 49.3371 15.24 49.0038 14.8L49.1238 14.12V20.06H46.8838V7.38H48.8238L49.1238 9.34L48.9238 8.74C49.3371 8.28667 49.8371 7.91333 50.4238 7.62C51.0238 7.31333 51.6971 7.16 52.4438 7.16C53.2438 7.16 53.9571 7.34667 54.5838 7.72C55.2104 8.09333 55.7038 8.62667 56.0638 9.32C56.4371 10 56.6238 10.8067 56.6238 11.74C56.6238 12.6733 56.4238 13.4733 56.0238 14.14C55.6238 14.8067 55.0771 15.32 54.3838 15.68C53.6904 16.04 52.9038 16.22 52.0238 16.22ZM51.5838 14.44C52.0771 14.44 52.5304 14.3267 52.9438 14.1C53.3704 13.8733 53.7104 13.56 53.9638 13.16C54.2171 12.7467 54.3438 12.2867 54.3438 11.78C54.3438 11.2467 54.2238 10.78 53.9838 10.38C53.7571 9.96667 53.4438 9.64667 53.0438 9.42C52.6571 9.18 52.2238 9.06 51.7438 9.06C51.3038 9.06 50.9104 9.13333 50.5638 9.28C50.2171 9.42667 49.9238 9.64 49.6838 9.92C49.4438 10.1867 49.2571 10.5067 49.1238 10.88V12.58C49.2171 12.94 49.3771 13.26 49.6038 13.54C49.8304 13.82 50.1171 14.04 50.4638 14.2C50.8104 14.36 51.1838 14.44 51.5838 14.44ZM61.7131 16.36C60.9398 16.36 60.2998 16.1267 59.7931 15.66C59.2865 15.18 59.0198 14.5667 58.9931 13.82V7.54H61.2331V13.02C61.2598 13.4333 61.3798 13.7733 61.5931 14.04C61.8065 14.3067 62.1465 14.44 62.6131 14.44C63.0531 14.44 63.4465 14.3067 63.7931 14.04C64.1398 13.76 64.4065 13.38 64.5931 12.9C64.7931 12.42 64.8931 11.88 64.8931 11.28V7.54H67.1331V16H65.1131L64.9331 14.14L64.9931 14.44C64.8198 14.8 64.5731 15.1333 64.2531 15.44C63.9331 15.7333 63.5531 15.96 63.1131 16.12C62.6865 16.28 62.2198 16.36 61.7131 16.36ZM70.2236 0.399999H72.4636V16H70.2236V0.399999ZM79.0961 16.22C78.2961 16.22 77.5694 16.0533 76.9161 15.72C76.2761 15.3867 75.7694 14.8933 75.3961 14.24C75.0228 13.5733 74.8361 12.7533 74.8361 11.78C74.8361 10.82 75.0294 10 75.4161 9.32C75.8161 8.62667 76.3361 8.09333 76.9761 7.72C77.6294 7.34667 78.3361 7.16 79.0961 7.16C79.9094 7.16 80.5628 7.32 81.0561 7.64C81.5628 7.96 81.9561 8.34 82.2361 8.78L82.1161 9.1L82.3361 7.54H84.3961V16H82.1561V13.94L82.3761 14.48C82.3228 14.56 82.2161 14.6933 82.0561 14.88C81.8961 15.0533 81.6761 15.2467 81.3961 15.46C81.1161 15.6733 80.7828 15.8533 80.3961 16C80.0228 16.1467 79.5894 16.22 79.0961 16.22ZM79.7161 14.38C80.1161 14.38 80.4761 14.3067 80.7961 14.16C81.1294 14.0133 81.4094 13.8067 81.6361 13.54C81.8761 13.2733 82.0494 12.9533 82.1561 12.58V10.74C82.0494 10.3933 81.8761 10.0933 81.6361 9.84C81.3961 9.57333 81.1028 9.36667 80.7561 9.22C80.4228 9.07333 80.0494 9 79.6361 9C79.1828 9 78.7628 9.11333 78.3761 9.34C77.9894 9.56667 77.6761 9.88 77.4361 10.28C77.2094 10.68 77.0961 11.14 77.0961 11.66C77.0961 12.1667 77.2161 12.6267 77.4561 13.04C77.6961 13.4533 78.0161 13.78 78.4161 14.02C78.8161 14.26 79.2494 14.38 79.7161 14.38ZM88.2892 3.82H90.5492V7.54H92.7492V9.3H90.5492V16H88.2892V9.3H86.8492V7.54H88.2892V3.82ZM98.9902 16.22C97.9902 16.22 97.1368 16.0267 96.4302 15.64C95.7235 15.2533 95.1835 14.72 94.8102 14.04C94.4368 13.3467 94.2502 12.5667 94.2502 11.7C94.2502 10.8467 94.4635 10.08 94.8902 9.4C95.3168 8.72 95.8902 8.18 96.6102 7.78C97.3435 7.36667 98.1502 7.16 99.0302 7.16C100.19 7.16 101.143 7.5 101.89 8.18C102.65 8.84667 103.157 9.79333 103.41 11.02L96.5902 13.32L96.0702 12.06L101.39 10.16L100.93 10.42C100.783 10.02 100.543 9.67333 100.21 9.38C99.8902 9.08667 99.4368 8.94 98.8502 8.94C98.3835 8.94 97.9702 9.05333 97.6102 9.28C97.2502 9.49333 96.9635 9.8 96.7502 10.2C96.5502 10.5867 96.4502 11.0467 96.4502 11.58C96.4502 12.1267 96.5635 12.6067 96.7902 13.02C97.0168 13.4333 97.3235 13.7533 97.7102 13.98C98.0968 14.1933 98.5368 14.3 99.0302 14.3C99.3768 14.3 99.7102 14.24 100.03 14.12C100.35 14 100.65 13.84 100.93 13.64L101.95 15.3C101.51 15.58 101.023 15.8067 100.49 15.98C99.9702 16.14 99.4702 16.22 98.9902 16.22ZM109.074 16.22C108.274 16.22 107.561 16.0333 106.934 15.66C106.308 15.2867 105.814 14.7533 105.454 14.06C105.094 13.3667 104.914 12.56 104.914 11.64C104.914 10.6933 105.108 9.88667 105.494 9.22C105.881 8.55333 106.408 8.04667 107.074 7.7C107.754 7.34 108.514 7.16 109.354 7.16C109.968 7.16 110.554 7.28 111.114 7.52C111.674 7.74667 112.121 8.08 112.454 8.52L112.414 9.28V0.399999H114.634V16H112.394V14.1L112.614 14.64C112.188 15.0933 111.674 15.4733 111.074 15.78C110.488 16.0733 109.821 16.22 109.074 16.22ZM109.794 14.32C110.234 14.32 110.621 14.2467 110.954 14.1C111.301 13.9533 111.594 13.7467 111.834 13.48C112.088 13.2 112.274 12.8733 112.394 12.5V10.7C112.288 10.3533 112.108 10.0467 111.854 9.78C111.614 9.51333 111.314 9.30667 110.954 9.16C110.594 9.01333 110.208 8.94 109.794 8.94C109.314 8.94 108.874 9.05333 108.474 9.28C108.088 9.50667 107.774 9.82 107.534 10.22C107.294 10.62 107.174 11.08 107.174 11.6C107.174 12.1067 107.294 12.5667 107.534 12.98C107.774 13.3933 108.094 13.72 108.494 13.96C108.894 14.2 109.328 14.32 109.794 14.32ZM116.704 14.78C116.704 14.4333 116.83 14.1467 117.084 13.92C117.337 13.68 117.617 13.56 117.924 13.56C118.204 13.56 118.47 13.68 118.724 13.92C118.977 14.1467 119.104 14.4333 119.104 14.78C119.104 15.1533 118.977 15.4533 118.724 15.68C118.47 15.8933 118.204 16 117.924 16C117.617 16 117.337 15.8933 117.084 15.68C116.83 15.4533 116.704 15.1533 116.704 14.78ZM121.122 7.54H123.362V16H121.122V7.54ZM121.022 4.52C121.022 4.17333 121.155 3.88667 121.422 3.66C121.702 3.43333 122.002 3.32 122.322 3.32C122.642 3.32 122.929 3.43333 123.182 3.66C123.449 3.88667 123.582 4.17333 123.582 4.52C123.582 4.86667 123.449 5.15333 123.182 5.38C122.929 5.59333 122.642 5.7 122.322 5.7C122.002 5.7 121.702 5.58667 121.422 5.36C121.155 5.13333 121.022 4.85333 121.022 4.52ZM125.735 11.68C125.735 10.8267 125.935 10.06 126.335 9.38C126.735 8.68667 127.295 8.14667 128.015 7.76C128.748 7.36 129.575 7.16 130.495 7.16C131.441 7.16 132.261 7.36 132.955 7.76C133.661 8.14667 134.208 8.68667 134.595 9.38C134.981 10.06 135.175 10.8267 135.175 11.68C135.175 12.5333 134.981 13.3067 134.595 14C134.208 14.68 133.661 15.22 132.955 15.62C132.261 16.02 131.435 16.22 130.475 16.22C129.568 16.22 128.755 16.04 128.035 15.68C127.315 15.3067 126.748 14.78 126.335 14.1C125.935 13.42 125.735 12.6133 125.735 11.68ZM127.995 11.7C127.995 12.1933 128.101 12.6467 128.315 13.06C128.528 13.46 128.821 13.78 129.195 14.02C129.568 14.26 129.981 14.38 130.435 14.38C130.928 14.38 131.355 14.26 131.715 14.02C132.088 13.78 132.375 13.46 132.575 13.06C132.788 12.6467 132.895 12.1933 132.895 11.7C132.895 11.1933 132.788 10.74 132.575 10.34C132.375 9.92667 132.088 9.6 131.715 9.36C131.355 9.12 130.928 9 130.435 9C129.968 9 129.548 9.12667 129.175 9.38C128.815 9.62 128.528 9.94 128.315 10.34C128.101 10.74 127.995 11.1933 127.995 11.7Z" fill="currentColor"/>
</svg>
