<svg height="60" viewBox="0 0 79 11" fill="none" xmlns="http://www.w3.org/2000/svg">
<path d="M0.113281 2.05469H2.76758C3.19727 2.05469 3.59961 2.10156 3.97461 2.19531C4.34961 2.28906 4.67383 2.42969 4.94727 2.61719C5.22461 2.80469 5.44141 3.03906 5.59766 3.32031C5.75781 3.59766 5.83789 3.92188 5.83789 4.29297C5.83789 4.66797 5.75977 4.99609 5.60352 5.27734C5.44727 5.55469 5.24023 5.78711 4.98242 5.97461C4.72852 6.16211 4.4375 6.30273 4.10938 6.39648C3.78125 6.48633 3.44531 6.53125 3.10156 6.53125H1.83594V10H0.113281V2.05469ZM1.83594 5.81055H2.5918C2.83008 5.81055 3.03906 5.77148 3.21875 5.69336C3.39844 5.61133 3.54883 5.50195 3.66992 5.36523C3.79102 5.22461 3.88086 5.06445 3.93945 4.88477C3.99805 4.70508 4.02734 4.51562 4.02734 4.31641C4.02734 4.07812 3.98828 3.86719 3.91016 3.68359C3.83203 3.5 3.72461 3.3457 3.58789 3.2207C3.45508 3.0918 3.29883 2.99414 3.11914 2.92773C2.93945 2.86133 2.74609 2.82812 2.53906 2.82812H1.83594V5.81055ZM10.3555 6.90625C10.1289 6.98438 9.91016 7.07812 9.69922 7.1875C9.49219 7.29297 9.30664 7.41211 9.14258 7.54492C8.98242 7.67773 8.85352 7.82227 8.75586 7.97852C8.66211 8.13086 8.61523 8.29492 8.61523 8.4707C8.61523 8.66992 8.67773 8.82617 8.80273 8.93945C8.92773 9.05273 9.0957 9.10938 9.30664 9.10938C9.49023 9.10938 9.66211 9.06836 9.82227 8.98633C9.98242 8.90039 10.1602 8.7832 10.3555 8.63477V6.90625ZM7.02148 5.52344C7.08398 5.27344 7.19141 5.04688 7.34375 4.84375C7.49609 4.63672 7.68359 4.46289 7.90625 4.32227C8.12891 4.17773 8.38086 4.06641 8.66211 3.98828C8.94727 3.91016 9.25586 3.87109 9.58789 3.87109C9.99805 3.87109 10.3516 3.91016 10.6484 3.98828C10.9453 4.06641 11.1895 4.17773 11.3809 4.32227C11.5723 4.46289 11.7129 4.63477 11.8027 4.83789C11.8965 5.03711 11.9434 5.26172 11.9434 5.51172V8.94531C11.9434 9.19141 12.0215 9.40039 12.1777 9.57227C12.3379 9.74023 12.5605 9.88281 12.8457 10H10.7773C10.7305 10 10.6855 9.98242 10.6426 9.94727C10.5996 9.91211 10.5586 9.86719 10.5195 9.8125C10.4805 9.75391 10.4453 9.69141 10.4141 9.625C10.3867 9.55859 10.3652 9.49414 10.3496 9.43164C10.1934 9.5332 10.0527 9.62695 9.92773 9.71289C9.80273 9.79492 9.67773 9.86523 9.55273 9.92383C9.43164 9.98242 9.30273 10.0273 9.16602 10.0586C9.0293 10.0938 8.87109 10.1113 8.69141 10.1113C8.43359 10.1113 8.20117 10.0723 7.99414 9.99414C7.78711 9.91602 7.61133 9.80859 7.4668 9.67188C7.32227 9.53125 7.21094 9.36719 7.13281 9.17969C7.05859 8.98828 7.02148 8.78125 7.02148 8.55859C7.02148 8.32422 7.06445 8.11523 7.15039 7.93164C7.23633 7.74414 7.35352 7.57617 7.50195 7.42773C7.6543 7.27539 7.83398 7.13867 8.04102 7.01758C8.24805 6.89648 8.4707 6.78711 8.70898 6.68945C8.95117 6.58789 9.20508 6.49414 9.4707 6.4082C9.73633 6.32227 10.0039 6.23828 10.2734 6.15625H10.3555V5.57031C10.3555 5.37891 10.332 5.2168 10.2852 5.08398C10.2422 4.94727 10.1797 4.83789 10.0977 4.75586C10.0195 4.66992 9.92383 4.60938 9.81055 4.57422C9.69727 4.53516 9.57031 4.51562 9.42969 4.51562C9.26562 4.51562 9.11914 4.54297 8.99023 4.59766C8.86523 4.65234 8.75586 4.72656 8.66211 4.82031C8.57227 4.91406 8.49805 5.02148 8.43945 5.14258C8.38477 5.26367 8.3457 5.39062 8.32227 5.52344H7.02148ZM13.373 4.29297L14.2578 4H14.3398V2.74609L15.5469 2.11328H15.9219V4H17.3926V4.75H15.9219V8.61133C15.9219 8.73242 15.9629 8.83789 16.0449 8.92773C16.1309 9.01758 16.2422 9.0625 16.3789 9.0625C16.4609 9.0625 16.543 9.04492 16.625 9.00977C16.7109 8.97461 16.7891 8.93359 16.8594 8.88672C16.9297 8.83984 16.9883 8.79297 17.0352 8.74609C17.0859 8.69531 17.1211 8.65625 17.1406 8.62891L17.6328 9.01562C17.5273 9.17578 17.4141 9.32422 17.293 9.46094C17.1758 9.59766 17.041 9.7168 16.8887 9.81836C16.7402 9.91602 16.5703 9.99219 16.3789 10.0469C16.1914 10.1055 15.9746 10.1348 15.7285 10.1348C15.4941 10.1348 15.2891 10.0977 15.1133 10.0234C14.9414 9.95312 14.7969 9.85352 14.6797 9.72461C14.5664 9.5957 14.4805 9.44141 14.4219 9.26172C14.3672 9.08203 14.3398 8.88281 14.3398 8.66406V4.75H13.373V4.29297ZM18.2246 4.29297L19.1094 4H19.1914V2.74609L20.3984 2.11328H20.7734V4H22.2441V4.75H20.7734V8.61133C20.7734 8.73242 20.8145 8.83789 20.8965 8.92773C20.9824 9.01758 21.0938 9.0625 21.2305 9.0625C21.3125 9.0625 21.3945 9.04492 21.4766 9.00977C21.5625 8.97461 21.6406 8.93359 21.7109 8.88672C21.7812 8.83984 21.8398 8.79297 21.8867 8.74609C21.9375 8.69531 21.9727 8.65625 21.9922 8.62891L22.4844 9.01562C22.3789 9.17578 22.2656 9.32422 22.1445 9.46094C22.0273 9.59766 21.8926 9.7168 21.7402 9.81836C21.5918 9.91602 21.4219 9.99219 21.2305 10.0469C21.043 10.1055 20.8262 10.1348 20.5801 10.1348C20.3457 10.1348 20.1406 10.0977 19.9648 10.0234C19.793 9.95312 19.6484 9.85352 19.5312 9.72461C19.418 9.5957 19.332 9.44141 19.2734 9.26172C19.2188 9.08203 19.1914 8.88281 19.1914 8.66406V4.75H18.2246V4.29297ZM26.2812 10.1348C25.8711 10.1348 25.4863 10.0566 25.127 9.90039C24.7676 9.74023 24.4531 9.52734 24.1836 9.26172C23.9141 8.99219 23.7012 8.68164 23.5449 8.33008C23.3926 7.97461 23.3164 7.59961 23.3164 7.20508C23.3164 6.73242 23.3867 6.29492 23.5273 5.89258C23.6719 5.48633 23.875 5.13477 24.1367 4.83789C24.3984 4.54102 24.7129 4.31055 25.0801 4.14648C25.4512 3.97852 25.8613 3.89453 26.3105 3.89453C26.7129 3.89453 27.0801 3.96094 27.4121 4.09375C27.7441 4.22656 28.0293 4.4082 28.2676 4.63867C28.5059 4.86914 28.6895 5.14062 28.8184 5.45312C28.9512 5.76562 29.0176 6.09961 29.0176 6.45508H24.8633C24.8789 6.78711 24.9316 7.10352 25.0215 7.4043C25.1113 7.70508 25.2305 7.9707 25.3789 8.20117C25.5312 8.42773 25.709 8.60938 25.9121 8.74609C26.1191 8.87891 26.3457 8.94531 26.5918 8.94531C26.8066 8.94531 27.0176 8.91211 27.2246 8.8457C27.4316 8.77539 27.6211 8.68164 27.793 8.56445C27.9648 8.44727 28.1133 8.31055 28.2383 8.1543C28.3672 7.99805 28.459 7.83008 28.5137 7.65039L29.2285 7.76758C29.1348 8.0918 28.9883 8.39844 28.7891 8.6875C28.5898 8.97266 28.3574 9.22266 28.0918 9.4375C27.8262 9.65234 27.5371 9.82227 27.2246 9.94727C26.9121 10.0723 26.5977 10.1348 26.2812 10.1348ZM27.166 5.83398C27.1504 5.6582 27.1094 5.49805 27.043 5.35352C26.9766 5.20508 26.8906 5.07812 26.7852 4.97266C26.6797 4.86719 26.5566 4.78711 26.416 4.73242C26.2793 4.67383 26.1309 4.64453 25.9707 4.64453C25.8418 4.64453 25.7148 4.67383 25.5898 4.73242C25.4688 4.78711 25.3594 4.86719 25.2617 4.97266C25.1641 5.07422 25.0801 5.19922 25.0098 5.34766C24.9434 5.49219 24.9004 5.6543 24.8809 5.83398H27.166ZM34.5723 5.16016C34.5098 5.10547 34.4512 5.06055 34.3965 5.02539C34.3418 4.98633 34.2832 4.95508 34.2207 4.93164C34.1582 4.9082 34.0879 4.89258 34.0098 4.88477C33.9316 4.87305 33.8379 4.86719 33.7285 4.86719C33.5879 4.86719 33.4492 4.88867 33.3125 4.93164C33.1797 4.9707 33.0547 5.02734 32.9375 5.10156C32.8242 5.17188 32.7227 5.25586 32.6328 5.35352C32.543 5.44727 32.4727 5.54883 32.4219 5.6582V10H30.8398V4.50977L31.9531 3.92383L32.4219 4.53906C32.5195 4.4375 32.6328 4.3418 32.7617 4.25195C32.8945 4.1582 33.0293 4.07617 33.166 4.00586C33.3066 3.93555 33.4453 3.88086 33.582 3.8418C33.7227 3.79883 33.8535 3.77734 33.9746 3.77734C34.0879 3.77734 34.1973 3.79297 34.3027 3.82422C34.4121 3.85156 34.5156 3.88867 34.6133 3.93555C34.7109 3.98242 34.8027 4.03711 34.8887 4.09961C34.9785 4.1582 35.0625 4.21875 35.1406 4.28125L34.5723 5.16016ZM39.8223 5.9043C39.8223 5.75195 39.8027 5.61719 39.7637 5.5C39.7246 5.37891 39.6699 5.2793 39.5996 5.20117C39.5332 5.11914 39.457 5.05859 39.3711 5.01953C39.2852 4.97656 39.1953 4.95508 39.1016 4.95508C38.9219 4.95508 38.707 5.01562 38.457 5.13672C38.207 5.25781 37.9609 5.42773 37.7188 5.64648V10H36.125V4.50977L37.3438 3.87695H37.7188V4.62109C38.0938 4.35156 38.4414 4.16406 38.7617 4.05859C39.0859 3.94922 39.3965 3.89453 39.6934 3.89453C39.9238 3.89453 40.1426 3.94336 40.3496 4.04102C40.5566 4.13477 40.7363 4.26367 40.8887 4.42773C41.0449 4.5918 41.168 4.78516 41.2578 5.00781C41.3516 5.22656 41.3984 5.46094 41.3984 5.71094V10H39.8223V5.9043ZM43.5547 2.23047H46.1328C46.5781 2.23047 46.9688 2.28125 47.3047 2.38281C47.6445 2.48047 47.9258 2.61914 48.1484 2.79883C48.375 2.97852 48.5449 3.19336 48.6582 3.44336C48.7715 3.68945 48.8281 3.95898 48.8281 4.25195C48.8281 4.49805 48.7832 4.72852 48.6934 4.94336C48.6074 5.1543 48.4824 5.3457 48.3184 5.51758C48.1543 5.68555 47.957 5.83008 47.7266 5.95117C47.4961 6.07227 47.2383 6.16602 46.9531 6.23242L49.7832 10H48.4531L45.752 6.34961H44.627V10H43.5547V2.23047ZM44.627 5.95703H45.5C45.8086 5.95703 46.0938 5.91797 46.3555 5.83984C46.6211 5.76172 46.8496 5.65234 47.041 5.51172C47.2324 5.36719 47.3809 5.19336 47.4863 4.99023C47.5957 4.78711 47.6504 4.55859 47.6504 4.30469C47.6504 4.07031 47.6074 3.85547 47.5215 3.66016C47.4355 3.46484 47.3145 3.29883 47.1582 3.16211C47.002 3.02148 46.8164 2.91211 46.6016 2.83398C46.3867 2.75586 46.1504 2.7168 45.8926 2.7168H44.627V5.95703ZM53.4746 10.1289C53.084 10.1289 52.7168 10.0527 52.373 9.90039C52.0332 9.74805 51.7344 9.54102 51.4766 9.2793C51.2227 9.01758 51.0215 8.71094 50.873 8.35938C50.7246 8.00391 50.6504 7.62695 50.6504 7.22852C50.6504 6.74805 50.7168 6.30469 50.8496 5.89844C50.9863 5.48828 51.1777 5.13477 51.4238 4.83789C51.6738 4.54102 51.9727 4.30859 52.3203 4.14062C52.668 3.97266 53.0547 3.88867 53.4805 3.88867C53.8555 3.88867 54.1992 3.95898 54.5117 4.09961C54.8242 4.23633 55.0938 4.42188 55.3203 4.65625C55.5469 4.88672 55.7227 5.1543 55.8477 5.45898C55.9727 5.76367 56.0352 6.08203 56.0352 6.41406H51.5645C51.5645 6.81641 51.6191 7.18945 51.7285 7.5332C51.8379 7.87695 51.9902 8.17383 52.1855 8.42383C52.3848 8.67383 52.6191 8.86914 52.8887 9.00977C53.1621 9.15039 53.4629 9.2207 53.791 9.2207C54.0645 9.2207 54.3262 9.18164 54.5762 9.10352C54.8301 9.02148 55.0566 8.91602 55.2559 8.78711C55.459 8.6543 55.6289 8.50391 55.7656 8.33594C55.9062 8.16406 56.0039 7.98828 56.0586 7.80859L56.2051 7.87891C56.1152 8.19141 55.9766 8.48438 55.7891 8.75781C55.6055 9.02734 55.3906 9.26562 55.1445 9.47266C54.8984 9.67578 54.6309 9.83594 54.3418 9.95312C54.0566 10.0703 53.7676 10.1289 53.4746 10.1289ZM54.6582 5.93359H54.7754C54.7754 5.70703 54.7324 5.49609 54.6465 5.30078C54.5605 5.10547 54.4414 4.9375 54.2891 4.79688C54.1406 4.65234 53.9648 4.53906 53.7617 4.45703C53.5586 4.375 53.3418 4.33398 53.1113 4.33398C52.916 4.33398 52.7285 4.375 52.5488 4.45703C52.373 4.53516 52.2148 4.64648 52.0742 4.79102C51.9336 4.93164 51.8184 5.09961 51.7285 5.29492C51.6387 5.49023 51.5859 5.70117 51.5703 5.92773L54.6582 5.93359ZM58.1621 4L60.3418 8.6582L62.4277 4H62.9668L60.2656 10.0645H59.9551L57.125 4H58.1621ZM66.6465 10.1289C66.2559 10.1289 65.8887 10.0527 65.5449 9.90039C65.2051 9.74805 64.9062 9.54102 64.6484 9.2793C64.3945 9.01758 64.1934 8.71094 64.0449 8.35938C63.8965 8.00391 63.8223 7.62695 63.8223 7.22852C63.8223 6.74805 63.8887 6.30469 64.0215 5.89844C64.1582 5.48828 64.3496 5.13477 64.5957 4.83789C64.8457 4.54102 65.1445 4.30859 65.4922 4.14062C65.8398 3.97266 66.2266 3.88867 66.6523 3.88867C67.0273 3.88867 67.3711 3.95898 67.6836 4.09961C67.9961 4.23633 68.2656 4.42188 68.4922 4.65625C68.7188 4.88672 68.8945 5.1543 69.0195 5.45898C69.1445 5.76367 69.207 6.08203 69.207 6.41406H64.7363C64.7363 6.81641 64.791 7.18945 64.9004 7.5332C65.0098 7.87695 65.1621 8.17383 65.3574 8.42383C65.5566 8.67383 65.791 8.86914 66.0605 9.00977C66.334 9.15039 66.6348 9.2207 66.9629 9.2207C67.2363 9.2207 67.498 9.18164 67.748 9.10352C68.002 9.02148 68.2285 8.91602 68.4277 8.78711C68.6309 8.6543 68.8008 8.50391 68.9375 8.33594C69.0781 8.16406 69.1758 7.98828 69.2305 7.80859L69.377 7.87891C69.2871 8.19141 69.1484 8.48438 68.9609 8.75781C68.7773 9.02734 68.5625 9.26562 68.3164 9.47266C68.0703 9.67578 67.8027 9.83594 67.5137 9.95312C67.2285 10.0703 66.9395 10.1289 66.6465 10.1289ZM67.8301 5.93359H67.9473C67.9473 5.70703 67.9043 5.49609 67.8184 5.30078C67.7324 5.10547 67.6133 4.9375 67.4609 4.79688C67.3125 4.65234 67.1367 4.53906 66.9336 4.45703C66.7305 4.375 66.5137 4.33398 66.2832 4.33398C66.0879 4.33398 65.9004 4.375 65.7207 4.45703C65.5449 4.53516 65.3867 4.64648 65.2461 4.79102C65.1055 4.93164 64.9902 5.09961 64.9004 5.29492C64.8105 5.49023 64.7578 5.70117 64.7422 5.92773L67.8301 5.93359ZM75.4297 9.17969C75.4297 9.35938 75.4844 9.52148 75.5938 9.66602C75.7031 9.81055 75.8398 9.92188 76.0039 10H74.9609C74.8242 9.93359 74.707 9.83008 74.6094 9.68945C74.5156 9.54492 74.4688 9.375 74.4688 9.17969C74.3516 9.26172 74.2207 9.35742 74.0762 9.4668C73.9355 9.57617 73.7773 9.67969 73.6016 9.77734C73.4258 9.875 73.2305 9.95703 73.0156 10.0234C72.8008 10.0938 72.5625 10.1289 72.3008 10.1289C72.082 10.1289 71.8848 10.0898 71.709 10.0117C71.5371 9.9375 71.3906 9.83398 71.2695 9.70117C71.1484 9.56836 71.0547 9.41016 70.9883 9.22656C70.9219 9.04297 70.8887 8.8457 70.8887 8.63477C70.8887 8.37305 70.9375 8.13672 71.0352 7.92578C71.1367 7.71484 71.2734 7.52539 71.4453 7.35742C71.6211 7.18555 71.8242 7.03516 72.0547 6.90625C72.2891 6.77344 72.5391 6.65625 72.8047 6.55469C73.0703 6.44922 73.3457 6.35742 73.6309 6.2793C73.916 6.20117 74.1953 6.12891 74.4688 6.0625V5.75195C74.4688 5.47852 74.4473 5.24805 74.4043 5.06055C74.3613 4.87305 74.293 4.72266 74.1992 4.60938C74.1094 4.49219 73.9941 4.41016 73.8535 4.36328C73.7129 4.3125 73.543 4.28711 73.3438 4.28711C73.1602 4.28711 72.9902 4.32031 72.834 4.38672C72.6777 4.45312 72.541 4.54297 72.4238 4.65625C72.3066 4.76562 72.2109 4.89648 72.1367 5.04883C72.0625 5.19727 72.0137 5.35547 71.9902 5.52344H71.1348C71.166 5.26562 71.252 5.03516 71.3926 4.83203C71.5332 4.62891 71.709 4.45898 71.9199 4.32227C72.1348 4.18164 72.375 4.07422 72.6406 4C72.9102 3.92578 73.1895 3.88867 73.4785 3.88867C73.8496 3.88867 74.1602 3.92773 74.4102 4.00586C74.6602 4.08008 74.8594 4.18555 75.0078 4.32227C75.1602 4.45898 75.2676 4.62695 75.3301 4.82617C75.3965 5.02148 75.4297 5.23828 75.4297 5.47656V9.17969ZM74.4688 6.50781C74.168 6.58984 73.8613 6.69336 73.5488 6.81836C73.2363 6.93945 72.9531 7.07617 72.6992 7.22852C72.4492 7.38086 72.2441 7.54883 72.084 7.73242C71.9238 7.91602 71.8438 8.11133 71.8438 8.31836C71.8438 8.4668 71.873 8.60742 71.9316 8.74023C71.9941 8.86914 72.0762 8.98438 72.1777 9.08594C72.2793 9.18359 72.3945 9.26172 72.5234 9.32031C72.6562 9.375 72.793 9.40234 72.9336 9.40234C73.0859 9.40234 73.2266 9.38086 73.3555 9.33789C73.4883 9.29492 73.6152 9.24023 73.7363 9.17383C73.8574 9.10352 73.9766 9.02539 74.0938 8.93945C74.2148 8.84961 74.3398 8.75781 74.4688 8.66406V6.50781ZM78.5586 10H77.5977V1.25195L78.3711 0.941406H78.5586V10Z" fill="#0f172a"/>
</svg>

